<svg width="132" height="43" viewBox="0 0 132 43" fill="none" xmlns="http://www.w3.org/2000/svg">
<g clip-path="url(#clip0_7_2)">
<path d="M13.0092 16.1797C12.9098 15.2493 12.4908 14.5249 11.7521 14.0064C11.0206 13.4879 10.0689 13.2287 8.89702 13.2287C8.07315 13.2287 7.36648 13.353 6.77699 13.6016C6.1875 13.8501 5.73651 14.1875 5.42401 14.6136C5.11151 15.0398 4.9517 15.5263 4.9446 16.0732C4.9446 16.5277 5.04759 16.9219 5.25355 17.2557C5.46662 17.5895 5.75426 17.8736 6.11648 18.108C6.47869 18.3352 6.87997 18.527 7.32031 18.6832C7.76065 18.8395 8.20455 18.9709 8.65199 19.0774L10.6974 19.5888C11.5213 19.7805 12.3132 20.0398 13.0732 20.3665C13.8402 20.6932 14.5256 21.1051 15.1293 21.6023C15.7401 22.0994 16.223 22.6996 16.5781 23.4027C16.9332 24.1058 17.1108 24.9297 17.1108 25.8743C17.1108 27.1527 16.7841 28.2784 16.1307 29.2514C15.4773 30.2173 14.5327 30.9737 13.2969 31.5206C12.0682 32.0604 10.5803 32.3303 8.8331 32.3303C7.13565 32.3303 5.66193 32.0675 4.41193 31.5419C3.16903 31.0163 2.19602 30.2493 1.4929 29.2408C0.796875 28.2322 0.420455 27.0036 0.363636 25.5547H4.25213C4.30895 26.3146 4.54332 26.9467 4.95526 27.451C5.36719 27.9553 5.90341 28.3317 6.56392 28.5803C7.23153 28.8288 7.97727 28.9531 8.80114 28.9531C9.66051 28.9531 10.4134 28.8253 11.0597 28.5696C11.7131 28.3068 12.2244 27.9446 12.5938 27.483C12.9631 27.0142 13.1513 26.4673 13.1584 25.8423C13.1513 25.2741 12.9844 24.8054 12.6577 24.4361C12.331 24.0597 11.8729 23.7472 11.2834 23.4986C10.701 23.2429 10.0192 23.0156 9.23793 22.8168L6.75568 22.1776C4.95881 21.7159 3.53835 21.0163 2.49432 20.0788C1.45739 19.1342 0.938921 17.8807 0.938921 16.3182C0.938921 15.0327 1.28693 13.907 1.98295 12.9411C2.68608 11.9751 3.64134 11.2259 4.84872 10.6932C6.05611 10.1534 7.4233 9.88352 8.95028 9.88352C10.4986 9.88352 11.8551 10.1534 13.0199 10.6932C14.1918 11.2259 15.1115 11.968 15.7791 12.9197C16.4467 13.8643 16.7912 14.951 16.8125 16.1797H13.0092Z" fill="#1F1F1F"/>
<path d="M22.6424 10.1818H26.5628V25.5227C26.5557 26.929 26.2574 28.1399 25.6679 29.1555C25.0784 30.1641 24.2546 30.9418 23.1963 31.4886C22.1452 32.0284 20.9201 32.2983 19.5209 32.2983C18.2425 32.2983 17.0919 32.071 16.0692 31.6165C15.0536 31.1548 14.2475 30.473 13.6509 29.571C13.0543 28.669 12.756 27.5469 12.756 26.2045H16.6871C16.6942 26.794 16.8221 27.3018 17.0706 27.728C17.3263 28.1541 17.6779 28.4808 18.1253 28.7081C18.5728 28.9354 19.0877 29.049 19.6701 29.049C20.3022 29.049 20.8384 28.9176 21.2787 28.6548C21.7191 28.3849 22.0529 27.9872 22.2801 27.4616C22.5145 26.9361 22.6353 26.2898 22.6424 25.5227V10.1818Z" fill="#FC3314"/>
<path d="M42.5455 32H35.152V10.1818H42.6946C44.8608 10.1818 46.7216 10.6186 48.277 11.4922C49.8395 12.3587 51.0398 13.6051 51.8778 15.2315C52.7159 16.858 53.1349 18.804 53.1349 21.0696C53.1349 23.3423 52.7124 25.2955 51.8672 26.929C51.0291 28.5625 49.8182 29.8161 48.2344 30.6896C46.6577 31.5632 44.7614 32 42.5455 32ZM39.1044 28.5803H42.3537C43.8736 28.5803 45.1413 28.3033 46.157 27.7493C47.1726 27.1882 47.9361 26.3537 48.4474 25.2457C48.9588 24.1307 49.2145 22.7386 49.2145 21.0696C49.2145 19.4006 48.9588 18.0156 48.4474 16.9148C47.9361 15.8068 47.1797 14.9794 46.1783 14.4325C45.1839 13.8786 43.9482 13.6016 42.4709 13.6016H39.1044V28.5803ZM63.9641 32.3196C62.3235 32.3196 60.9066 31.9787 59.7134 31.2969C58.5273 30.608 57.6147 29.6349 56.9755 28.3778C56.3363 27.1136 56.0167 25.6257 56.0167 23.9141C56.0167 22.2308 56.3363 20.7536 56.9755 19.4822C57.6218 18.2038 58.5238 17.2095 59.6815 16.4993C60.8391 15.782 62.1992 15.4233 63.7617 15.4233C64.7702 15.4233 65.7219 15.5866 66.6168 15.9134C67.5188 16.233 68.3143 16.7301 69.0032 17.4048C69.6992 18.0795 70.2461 18.9389 70.6438 19.983C71.0415 21.0199 71.2404 22.2557 71.2404 23.6903V24.8729H57.8278V22.2734H67.5437C67.5366 21.5348 67.3768 20.8778 67.0643 20.3026C66.7518 19.7202 66.315 19.2621 65.7539 18.9283C65.1999 18.5945 64.5536 18.4276 63.815 18.4276C63.0266 18.4276 62.3342 18.6193 61.7376 19.0028C61.141 19.3793 60.6758 19.8764 60.342 20.4943C60.0153 21.1051 59.8484 21.7763 59.8413 22.5078V24.777C59.8413 25.7287 60.0153 26.5455 60.3633 27.2273C60.7113 27.902 61.1978 28.4205 61.8228 28.7827C62.4478 29.1378 63.1793 29.3153 64.0174 29.3153C64.5785 29.3153 65.0863 29.2372 65.5408 29.081C65.9954 28.9176 66.3896 28.6797 66.7234 28.3672C67.0572 28.0547 67.3093 27.6676 67.4798 27.206L71.0806 27.6108C70.8533 28.5625 70.4201 29.3935 69.7809 30.1037C69.1488 30.8068 68.3391 31.3537 67.3519 31.7443C66.3647 32.1278 65.2354 32.3196 63.9641 32.3196ZM87.4363 19.9616L83.9206 20.3452C83.8212 19.9901 83.6472 19.6562 83.3986 19.3438C83.1571 19.0312 82.8304 18.7791 82.4185 18.5874C82.0066 18.3956 81.5023 18.2997 80.9057 18.2997C80.1032 18.2997 79.4284 18.4737 78.8816 18.8217C78.3418 19.1697 78.0755 19.6207 78.0826 20.1747C78.0755 20.6506 78.2495 21.0376 78.6046 21.3359C78.9668 21.6342 79.5634 21.8793 80.3944 22.071L83.1855 22.6676C84.7338 23.0014 85.8844 23.5305 86.6373 24.255C87.3972 24.9794 87.7807 25.9276 87.7878 27.0994C87.7807 28.1293 87.4789 29.0384 86.8823 29.8267C86.2928 30.608 85.4725 31.2187 84.4213 31.6591C83.3702 32.0994 82.1628 32.3196 80.7992 32.3196C78.7963 32.3196 77.1841 31.9006 75.9625 31.0625C74.7409 30.2173 74.013 29.0419 73.7786 27.5362L77.5392 27.174C77.7097 27.9126 78.0719 28.4702 78.6259 28.8466C79.1799 29.223 79.9007 29.4112 80.7885 29.4112C81.7047 29.4112 82.4398 29.223 82.9938 28.8466C83.5549 28.4702 83.8354 28.005 83.8354 27.451C83.8354 26.9822 83.6543 26.5952 83.2921 26.2898C82.937 25.9844 82.383 25.75 81.6301 25.5866L78.839 25.0007C77.2694 24.674 76.1081 24.1236 75.3553 23.3494C74.6025 22.5682 74.2296 21.581 74.2367 20.3878C74.2296 19.3793 74.503 18.5057 75.057 17.767C75.6181 17.0213 76.3958 16.446 77.3901 16.0412C78.3915 15.6293 79.5456 15.4233 80.8525 15.4233C82.7701 15.4233 84.2793 15.8317 85.3801 16.6484C86.4881 17.4652 87.1735 18.5696 87.4363 19.9616ZM90.9679 32V15.6364H94.8244V32H90.9679ZM92.9068 13.3139C92.296 13.3139 91.7704 13.1115 91.3301 12.7067C90.8897 12.2947 90.6696 11.8011 90.6696 11.2259C90.6696 10.6435 90.8897 10.1499 91.3301 9.74503C91.7704 9.3331 92.296 9.12713 92.9068 9.12713C93.5247 9.12713 94.0502 9.3331 94.4835 9.74503C94.9238 10.1499 95.144 10.6435 95.144 11.2259C95.144 11.8011 94.9238 12.2947 94.4835 12.7067C94.0502 13.1115 93.5247 13.3139 92.9068 13.3139ZM105.907 38.4773C104.522 38.4773 103.332 38.2891 102.338 37.9126C101.343 37.5433 100.544 37.0462 99.9407 36.4212C99.337 35.7962 98.918 35.1037 98.6836 34.3438L102.157 33.5021C102.313 33.8217 102.54 34.1378 102.838 34.4503C103.137 34.7699 103.538 35.0327 104.042 35.2386C104.554 35.4517 105.196 35.5582 105.971 35.5582C107.064 35.5582 107.97 35.2919 108.687 34.7592C109.404 34.2337 109.763 33.3672 109.763 32.1598V29.0597H109.571C109.373 29.4574 109.081 29.8658 108.698 30.2848C108.321 30.7038 107.821 31.0554 107.196 31.3395C106.578 31.6236 105.8 31.7656 104.863 31.7656C103.605 31.7656 102.466 31.4709 101.443 30.8814C100.427 30.2848 99.6175 29.397 99.0138 28.218C98.4173 27.032 98.119 25.5476 98.119 23.7649C98.119 21.968 98.4173 20.4517 99.0138 19.2159C99.6175 17.973 100.431 17.032 101.453 16.3928C102.476 15.7464 103.616 15.4233 104.873 15.4233C105.832 15.4233 106.62 15.5866 107.238 15.9134C107.863 16.233 108.36 16.62 108.73 17.0746C109.099 17.522 109.38 17.9446 109.571 18.3423H109.784V15.6364H113.588V32.2663C113.588 33.6655 113.254 34.8232 112.586 35.7393C111.919 36.6555 111.006 37.3409 109.848 37.7955C108.691 38.25 107.377 38.4773 105.907 38.4773ZM105.939 28.7401C106.755 28.7401 107.451 28.5412 108.027 28.1435C108.602 27.7457 109.039 27.174 109.337 26.4283C109.635 25.6825 109.784 24.7876 109.784 23.7436C109.784 22.7138 109.635 21.8118 109.337 21.0376C109.046 20.2635 108.613 19.6634 108.037 19.2372C107.469 18.804 106.77 18.5874 105.939 18.5874C105.079 18.5874 104.362 18.8111 103.787 19.2585C103.211 19.706 102.778 20.3203 102.487 21.1016C102.196 21.8757 102.05 22.7564 102.05 23.7436C102.05 24.745 102.196 25.6222 102.487 26.375C102.785 27.1207 103.222 27.7031 103.797 28.1222C104.38 28.5341 105.093 28.7401 105.939 28.7401ZM121.397 22.4119V32H117.54V15.6364H121.226V18.4169H121.418C121.794 17.5007 122.395 16.7727 123.218 16.233C124.049 15.6932 125.076 15.4233 126.297 15.4233C127.426 15.4233 128.41 15.6648 129.248 16.1477C130.093 16.6307 130.747 17.3303 131.208 18.2464C131.677 19.1626 131.908 20.2741 131.901 21.581V32H128.044V22.1776C128.044 21.0838 127.76 20.228 127.192 19.6101C126.631 18.9922 125.853 18.6832 124.859 18.6832C124.184 18.6832 123.584 18.8324 123.059 19.1307C122.54 19.4219 122.132 19.8445 121.833 20.3984C121.542 20.9524 121.397 21.6236 121.397 22.4119Z" fill="#FC3314"/>
</g>
<defs>
<clipPath id="clip0_7_2">
<rect width="132" height="43" fill="white"/>
</clipPath>
</defs>
</svg>
